#!OML:ASF X:\2005_08_12_Meinard\c3d\meinard.ASF
:FULLY-SPECIFIED
:DEGREES
1346
root 2.56042 16.4643 -0.619602 -38.7976 -42.0957 3.91187
lowerback 46.3627 0.564159 2.06434
upperback 12.5628 0.555887 -1.00965
thorax -7.07974 -0.0592919 -2.31581
lowerneck -12.9941 2.51922 -6.3302
upperneck 0.439139 4.05741 5.22108
head 2.19348 2.16377 3.0934
rclavicle -5.13361e-014 -7.49418e-014
rhumerus -29.0355 21.5487 -81.7454
rradius 73.3611
rwrist 8.53071
rhand -4.9184 -8.39962
rfingers 7.12502
rthumb 20.8718 -37.2969
lclavicle -5.13361e-014 -7.49418e-014
lhumerus -28.808 18.365 73.7508
lradius 40.9425
lwrist -215.055
lhand -8.47353 4.49035
lfingers 7.12502
lthumb 17.4532 33.7268
rfemur -156.257 -177.082 198.333
rtibia 34.6399
rfoot 161.174 155.491
rtoes 0.190409
lfemur -201.606 162.814 -193.107
ltibia 85.327
lfoot -0.327866 15.1244
ltoes 19.6213
1347
root 2.56647 16.4787 -0.616891 -37.4292 -42.1321 3.69067
lowerback 45.5745 0.639966 1.69698
upperback 12.2583 0.529345 -0.857616
thorax -7.23455 -0.0742454 -1.95636
lowerneck -13.2145 2.56996 -6.67781
upperneck 0.481163 4.17993 5.43709
head 2.23229 2.23233 3.24879
rclavicle 4.72114e-014 -6.20208e-014
rhumerus -29.6563 21.3614 -81.8629
rradius 73.2075
rwrist 8.91972
rhand -4.91746 -8.18402
rfingers 7.12502
rthumb 20.8727 -37.0812
lclavicle 4.72114e-014 -6.20208e-014
lhumerus -28.2853 18.4516 73.8024
lradius 41.1446
lwrist -214.882
lhand -8.8061 4.6167
lfingers 7.12502
lthumb 17.1331 33.8813
rfemur -157.741 -177.138 198.651
rtibia 35.1109
rfoot 160.85 155.369
rtoes 0.125861
lfemur -199.87 163.451 -193.278
ltibia 83.9877
lfoot -0.152399 15.2581
ltoes 20.767
1348
root 2.57122 16.4861 -0.614784 -36.1129 -42.1606 3.48103
lowerback 44.8558 0.726999 1.28529
upperback 11.9633 0.501209 -0.694186
thorax -7.38933 -0.0899044 -1.56085
lowerneck -13.4583 2.61222 -6.97615
upperneck 0.524457 4.28898 5.58711
head 2.27787 2.29235 3.37314
rclavicle -1.78906e-015 3.00165e-014
rhumerus -30.3156 21.1143 -81.9904
rradius 73.093
rwrist 9.18931
rhand -4.92508 -7.94298
rfingers 7.12502
rthumb 20.8654 -36.8409
lclavicle -1.78906e-015 3.00165e-014
lhumerus -27.7042 18.5862 73.8994
lradius 41.2136
lwrist -214.94
lhand -8.9704 4.65921
lfingers 7.12502
lthumb 16.9749 33.9375
rfemur -159.238 -177.244 198.983
rtibia 35.7126
rfoot 160.4 155.212
rtoes -0.109049
lfemur -198.097 164.185 -193.484
ltibia 82.4449
lfoot 0.00831501 15.2943
ltoes 21.9575
1349
root 2.57585 16.4881 -0.613254 -34.8001 -42.1458 3.2424
lowerback 44.2115 0.798215 0.837952
upperback 11.6678 0.443972 -0.515816
thorax -7.55887 -0.118714 -1.11843
lowerneck -13.7968 2.66313 -7.22352
upperneck 0.578895 4.4096 5.70181
head 2.34481 2.35788 3.48066
rclavicle 8.69683e-015 2.90226e-014
rhumerus -30.9753 20.8626 -82.1221
rradius 73.0341
rwrist 9.33025
rhand -4.92017 -7.77878
rfingers 7.12502
rthumb 20.8701 -36.6762
lclavicle 8.69683e-015 2.90226e-014
lhumerus -27.1213 18.7402 74.0426
lradius 41.213
lwrist -215.16
lhand -9.01175 4.62131
lfingers 7.12502
lthumb 16.9351 33.903
rfemur -160.753 -177.349 199.315
rtibia 36.4243
rfoot 159.852 155.068
rtoes -0.355933
lfemur -196.357 165.063 -193.743
ltibia 80.7341
lfoot 0.172702 15.1953
ltoes 22.9141
1350
root 2.5813 16.4829 -0.614071 -33.4571 -42.1181 2.98401
lowerback 43.6353 0.884906 0.356428
upperback 11.3535 0.396771 -0.328557
thorax -7.76207 -0.141056 -0.652684
lowerneck -14.3609 2.72336 -7.19469
upperneck 0.990904 4.50796 5.90929
head 2.28557 2.43088 3.21453
rclavicle 4.38817e-014 -3.35946e-014
rhumerus -31.7034 20.5907 -82.2303
rradius 73.0681
rwrist 9.28535
rhand -4.89153 -7.63972
rfingers 7.12502
rthumb 20.8976 -36.5341
lclavicle 4.38817e-014 -3.35946e-014
lhumerus -26.584 18.7835 74.2443
lradius 41.2408
lwrist -215.532
lhand -8.9705 4.49454
lfingers 7.12502
lthumb 16.9748 33.7728
rfemur -162.346 -177.461 199.661
rtibia 37.2231
rfoot 159.291 154.924
rtoes -0.661423
lfemur -194.713 166.05 -194.047
ltibia 78.8643
lfoot 0.364934 15.0585
ltoes 23.3671
1351
root 2.58864 16.4768 -0.617813 -32.1071 -42.1109 2.7029
lowerback 43.1412 0.988249 -0.160815
upperback 11.0227 0.360629 -0.116539
thorax -8.00193 -0.156819 -0.14601
lowerneck -14.8055 2.80856 -7.11499
upperneck 1.06669 4.63545 5.82305
head 2.37178 2.49532 3.19306
rclavicle 6.2965e-014 -1.35174e-014
rhumerus -32.5619 20.4118 -82.3043
rradius 73.2569
rwrist 9.00647
rhand -4.91928 -7.61564
rfingers 7.12502
rthumb 20.871 -36.513
lclavicle 6.2965e-014 -1.35174e-014
lhumerus -26.1018 18.8699 74.4735
lradius 41.2485
lwrist -215.994
lhand -8.93801 4.37304
lfingers 7.12502
lthumb 17.0061 33.6486
rfemur -163.975 -177.627 200.054
rtibia 38.0746
rfoot 158.767 154.755
rtoes -0.864148
lfemur -193.114 167.109 -194.359
ltibia 76.8163
lfoot 0.468622 14.9437
ltoes 23.2881
1352
root 2.59883 16.4729 -0.624542 -30.7363 -42.109 2.38208
lowerback 42.7043 1.08574 -0.669291
upperback 10.7002 0.323886 0.105417
thorax -8.24486 -0.170464 0.367966
lowerneck -15.272 2.91859 -6.87034
upperneck 1.1261 4.77369 5.60347
head 2.46239 2.56024 3.10571
rclavicle 2.32578e-014 -9.74045e-015
rhumerus -33.4287 20.2326 -82.34
rradius 73.5571
rwrist 8.62929
rhand -4.91053 -7.64197
rfingers 7.12502
rthumb 20.8794 -36.5384
lclavicle 2.32578e-014 -9.74045e-015
lhumerus -25.6331 18.7914 74.7464
lradius 41.3116
lwrist -216.407
lhand -8.96097 4.22552
lfingers 7.12502
lthumb 16.984 33.503
rfemur -165.648 -177.856 200.503
rtibia 38.9839
rfoot 158.21 154.512
rtoes -1.20501
lfemur -191.581 168.199 -194.672
ltibia 74.5928
lfoot 0.422027 14.7562
ltoes 22.9687
1353
root 2.61026 16.4683 -0.633561 -29.3561 -42.096 2.05748
lowerback 42.2967 1.17028 -1.17225
upperback 10.3826 0.274516 0.316081
thorax -8.48703 -0.186656 0.873282
lowerneck -15.7096 3.03343 -6.6095
upperneck 1.12515 4.91223 5.38781
head 2.53098 2.62496 3.01591
rclavicle 4.14963e-014 1.51076e-014
rhumerus -34.3106 19.905 -82.3702
rradius 73.9735
rwrist 8.27921
rhand -4.76491 -7.77411
rfingers 7.12502
rthumb 21.0193 -36.655
lclavicle 4.14963e-014 1.51076e-014
lhumerus -25.1524 18.5781 74.9903
lradius 41.3376
lwrist -216.658
lhand -9.08892 4.14261
lfingers 7.12502
lthumb 16.8608 33.4306
rfemur -167.393 -177.822 200.775
rtibia 39.9649
rfoot 157.704 154.523
rtoes -1.45696
lfemur -190.134 169.315 -195.024
ltibia 72.2177
lfoot 0.0729855 14.4835
ltoes 22.7853
1354
root 2.62454 16.4583 -0.645046 -27.9884 -42.058 1.72368
lowerback 41.9436 1.21883 -1.61402
upperback 10.0969 0.199108 0.47231
thorax -8.7049 -0.212015 1.30056
lowerneck -16.1541 3.15958 -6.22349
upperneck 1.04246 5.04278 5.13329
head 2.58061 2.6845 2.89325
rclavicle 3.88624e-014 5.66536e-014
rhumerus -35.2038 19.4227 -82.4028
rradius 74.4919
rwrist 8.05413
rhand -4.57339 -7.83334
rfingers 7.12502
rthumb 21.2033 -36.6937
lclavicle 3.88624e-014 5.66536e-014
lhumerus -24.5992 17.8556 75.1813
lradius 41.4376
lwrist -216.366
lhand -9.38357 4.00769
lfingers 7.12502
lthumb 16.5772 33.3197
rfemur -169.229 -177.415 200.831
rtibia 41.0778
rfoot 157.236 154.885
rtoes -1.43346
lfemur -188.794 170.447 -195.41
ltibia 69.7457
lfoot -0.839569 14.1886
ltoes 22.6353
1355
root 2.64243 16.4399 -0.659422 -26.6489 -42.0289 1.37398
lowerback 41.6923 1.23712 -1.99117
upperback 9.82259 0.106927 0.602293
thorax -8.93676 -0.243429 1.6742
lowerneck -16.5571 3.27621 -5.86559
upperneck 0.885134 5.15965 4.90898
head 2.60102 2.7377 2.78174
rclavicle -9.47706e-014 8.54774e-015
rhumerus -35.9984 18.9934 -82.4402
rradius 74.9581
rwrist 7.85315
rhand -4.38707 -7.91559
rfingers 7.12502
rthumb 21.3822 -36.7558
lclavicle -9.47706e-014 8.54774e-015
lhumerus -23.9492 17.0022 75.2993
lradius 41.4881
lwrist -215.786
lhand -9.84479 3.96606
lfingers 7.12502
lthumb 16.1331 33.3146
rfemur -171.154 -176.845 200.826
rtibia 42.3813
rfoot 156.847 155.388
rtoes -0.936886
lfemur -187.557 171.547 -195.787
ltibia 67.2164
lfoot -2.41495 13.9663
ltoes 21.9481
1356
root 2.66576 16.4087 -0.677371 -25.3865 -41.9665 1.07057
lowerback 41.5624 1.22918 -2.34737
upperback 9.55257 -0.0183465 0.693655
thorax -9.19666 -0.288046 2.01037
lowerneck -16.7343 3.38992 -5.62002
upperneck 0.268392 5.28595 4.56704
head 2.77141 2.77717 2.93788
rclavicle -6.21202e-014 3.77691e-014
rhumerus -36.7191 18.5242 -82.4581
rradius 75.4222
rwrist 7.78096
rhand -4.11208 -7.95809
rfingers 7.12502
rthumb 21.6463 -36.7681
lclavicle -6.21202e-014 3.77691e-014
lhumerus -23.2694 16.133 75.3383
lradius 41.5312
lwrist -215.051
lhand -10.4308 4.0964
lfingers 7.12502
lthumb 15.5687 33.4898
rfemur -173.176 -176.162 200.73
rtibia 43.8671
rfoot 156.497 156.006
rtoes -0.0958933
lfemur -186.449 172.616 -196.22
ltibia 64.6732
lfoot -4.56418 13.9451
ltoes 20.5899
1357
root 2.69155 16.3636 -0.69746 -24.2252 -41.8757 0.800436
lowerback 41.5247 1.19039 -2.65333
upperback 9.31324 -0.171721 0.745528
thorax -9.44687 -0.345098 2.29077
lowerneck -16.9363 3.4824 -5.37712
upperneck -0.116025 5.37615 4.45288
head 2.677 2.82074 2.85471
rclavicle 1.81018e-014 5.15598e-014
rhumerus -37.3493 18.02 -82.4709
rradius 75.8147
rwrist 7.85176
rhand -3.86291 -7.91106
rfingers 7.12502
rthumb 21.8856 -36.6933
lclavicle 1.81018e-014 5.15598e-014
lhumerus -22.6034 15.4335 75.3264
lradius 41.652
lwrist -214.343
lhand -11.1232 4.2967
lfingers 7.12502
lthumb 14.9018 33.7407
rfemur -175.219 -175.399 200.577
rtibia 45.4693
rfoot 156.27 156.736
rtoes 0.886264
lfemur -185.45 173.65 -196.671
ltibia 62.1618
lfoot -7.21238 14.231
ltoes 18.9395
1358
root 2.71538 16.3168 -0.719224 -23.1863 -41.8027 0.588069
lowerback 41.5999 1.17563 -2.99668
upperback 9.08214 -0.321733 0.771932
thorax -9.7204 -0.399136 2.56292
lowerneck -17.0691 3.55543 -5.19839
upperneck -0.583762 5.44534 4.43494
head 2.53921 2.85711 2.81001
rclavicle 1.2365e-014 -2.32951e-014
rhumerus -37.9224 17.5009 -82.4905
rradius 76.1475
rwrist 8.09274
rhand -3.56222 -7.78604
rfingers 7.12502
rthumb 22.1743 -36.5343
lclavicle 1.2365e-014 -2.32951e-014
lhumerus -22.017 14.821 75.2583
lradius 41.8947
lwrist -213.742
lhand -11.8148 4.57194
lfingers 7.12502
lthumb 14.2355 34.0641
rfemur -177.211 -174.661 200.42
rtibia 47.1073
rfoot 156.185 157.478
rtoes 2.04869
lfemur -184.559 174.619 -197.129
ltibia 59.7383
lfoot -9.84598 14.8069
ltoes 18.0414
